<svg width="50" height="30" viewBox="0 0 50 30" fill="none" xmlns="http://www.w3.org/2000/svg">
<path d="M46.804 14.0272C46.6471 13.9942 46.4989 13.9632 46.3671 13.9289C44.873 13.5404 44.1911 13.3274 43.6869 12.354L41.777 8.48734C41.1632 7.30243 39.5783 6.33836 38.244 6.33836H34.8439V1.87339C34.8439 1.0717 34.1916 0.419403 33.3897 0.419403L9.70754 0.443185C8.92725 0.443185 8.33885 1.06326 8.33885 1.8856V3.20532H2.27211C1.0193 3.20543 0 4.22463 0 5.47754C0 6.73045 1.0193 7.74965 2.27211 7.74965H8.33874V9.92738H4.36671C3.11391 9.92738 2.0946 10.9467 2.0946 12.1995C2.0946 13.4523 3.11391 14.4716 4.36671 14.4716H8.33874V16.6493H6.46131C5.20851 16.6493 4.18921 17.6686 4.18921 18.9214C4.18921 20.1742 5.20851 21.1935 6.46131 21.1935H8.33874V23.4713C8.33874 24.273 8.99103 24.9253 9.79272 24.9253H12.2562C12.6398 27.5547 14.9092 29.5806 17.6437 29.5806C20.3784 29.5806 22.6479 27.5547 23.0317 24.9253H33.0014C33.0531 24.9253 33.1062 24.9218 33.1592 24.9183C33.5399 27.5511 35.8107 29.5806 38.5476 29.5806C41.2822 29.5806 43.5518 27.5547 43.9355 24.9253H47.474C48.8669 24.9253 50.0001 23.7921 50.0001 22.3993V18.1133C50 14.6978 48.0766 14.2942 46.804 14.0272ZM38.5476 22.1563C39.6394 22.1563 40.5277 23.0443 40.5277 24.1358C40.5277 25.2273 39.6394 26.1153 38.5476 26.1153C37.4562 26.1153 36.5682 25.2273 36.5682 24.1358C36.5682 23.0443 37.4562 22.1563 38.5476 22.1563ZM34.8439 13.7193V8.44713H37.4422C38.4409 8.44713 39.6728 9.1965 40.1301 10.0788L41.8296 13.5196C41.8656 13.5893 41.903 13.6556 41.9418 13.7192H34.8439V13.7193ZM19.6238 24.1357C19.6238 25.2271 18.7355 26.1152 17.6437 26.1152C16.5523 26.1152 15.6644 25.2272 15.6644 24.1357C15.6644 23.0442 16.5523 22.1562 17.6437 22.1562C18.7355 22.1563 19.6238 23.0443 19.6238 24.1357Z" fill="#E1E1E1"/>
</svg>
